HIERARCHY
ROOT Hips
{
	OFFSET 0.000000 0.000000 0.000000
	CHANNELS 6 Xposition Yposition Zposition Xrotation Yrotation Zrotation
	JOINT LeftUpLeg_virtual
	{
		OFFSET 0.000000 0.000000 0.000000
		CHANNELS 3 Xrotation Yrotation Zrotation
		JOINT LeftUpLeg
		{
			OFFSET 13.026900 -6.336304 -1.092800
			CHANNELS 3 Xrotation Yrotation Zrotation
			JOINT LeftLeg
			{
				OFFSET 0.524474 -46.096886 9.782700
				CHANNELS 3 Xrotation Yrotation Zrotation
				JOINT LeftFoot
				{
					OFFSET -0.524474 -53.427422 -12.948200
					CHANNELS 3 Xrotation Yrotation Zrotation
					JOINT LeftToeBase
					{
						OFFSET 0.192200 -14.009700 16.364100
						CHANNELS 3 Xrotation Yrotation Zrotation
						JOINT LeftToe_End
						{
							OFFSET -1.784700 -0.561700 9.474800
							CHANNELS 3 Xrotation Yrotation Zrotation
							End Site
							{
								OFFSET 0 0 0
							}
						}
					}
				}
			}
		}
	}
	JOINT RightUpLeg_virtual
	{
		OFFSET 0.000000 0.000000 0.000000
		CHANNELS 3 Xrotation Yrotation Zrotation
		JOINT RightUpLeg
		{
			OFFSET -12.883000 -6.336304 -1.092800
			CHANNELS 3 Xrotation Yrotation Zrotation
			JOINT RightLeg
			{
				OFFSET -0.524587 -46.096825 9.782800
				CHANNELS 3 Xrotation Yrotation Zrotation
				JOINT RightFoot
				{
					OFFSET 0.524587 -53.427383 -12.948300
					CHANNELS 3 Xrotation Yrotation Zrotation
					JOINT RightToeBase
					{
						OFFSET -0.192200 -14.009700 16.364100
						CHANNELS 3 Xrotation Yrotation Zrotation
						JOINT RightToe_End
						{
							OFFSET 1.784700 -0.561700 9.474800
							CHANNELS 3 Xrotation Yrotation Zrotation
							End Site
							{
								OFFSET 0 0 0
							}
						}
					}
				}
			}
		}
	}
	JOINT Spine_virtual
	{
		OFFSET 0.000000 0.000000 0.000000
		CHANNELS 3 Xrotation Yrotation Zrotation
		JOINT Spine
		{
			OFFSET 0.072000 7.257294 -0.789700
			CHANNELS 3 Xrotation Yrotation Zrotation
			JOINT Spine1
			{
				OFFSET 0.000000 12.508769 -0.658067
				CHANNELS 3 Xrotation Yrotation Zrotation
				JOINT Spine1_split
				{
					OFFSET 0.000000 12.508769 -0.658067
					CHANNELS 3 Xrotation Yrotation Zrotation
					JOINT Spine2
					{
						OFFSET 0.000000 12.508769 -0.658067
						CHANNELS 3 Xrotation Yrotation Zrotation
						JOINT Neck_virtual
						{
							OFFSET 0.000000 0.000000 0.000000
							CHANNELS 3 Xrotation Yrotation Zrotation
							JOINT Neck
							{
								OFFSET 0.000000 14.033295 7.520400
								CHANNELS 3 Xrotation Yrotation Zrotation
								JOINT Head
								{
									OFFSET 0.000000 8.198502 5.703100
									CHANNELS 3 Xrotation Yrotation Zrotation
									JOINT HeadTop_End
									{
										OFFSET 0.000000 17.760803 13.332701
										CHANNELS 3 Xrotation Yrotation Zrotation
										End Site
										{
											OFFSET 0 0 0
										}
									}
								}
							}
						}
						JOINT LeftShoulder_virtual
						{
							OFFSET 0.000000 0.000000 0.000000
							CHANNELS 3 Xrotation Yrotation Zrotation
							JOINT LeftShoulder
							{
								OFFSET 6.292450 5.785301 -0.669000
								CHANNELS 3 Xrotation Yrotation Zrotation
								JOINT LeftShoulder_split
								{
									OFFSET 6.292450 5.785301 -0.669000
									CHANNELS 3 Xrotation Yrotation Zrotation
									JOINT LeftArm
									{
										OFFSET 13.907140 -6.093903 1.965100
										CHANNELS 3 Xrotation Yrotation Zrotation
										JOINT LeftForeArm
										{
											OFFSET 34.140198 0.000000 0.000000
											CHANNELS 3 Xrotation Yrotation Zrotation
											JOINT LeftHand
											{
												OFFSET 40.960209 0.000000 0.000000
												CHANNELS 3 Xrotation Yrotation Zrotation
												End Site
												{
													OFFSET 0 0 0
												}
											}
										}
									}
								}
							}
						}
						JOINT RightShoulder_virtual
						{
							OFFSET 0.000000 0.000000 0.000000
							CHANNELS 3 Xrotation Yrotation Zrotation
							JOINT RightShoulder
							{
								OFFSET -6.292450 5.785301 -0.669000
								CHANNELS 3 Xrotation Yrotation Zrotation
								JOINT RightShoulder_split
								{
									OFFSET -6.292450 5.785301 -0.669000
									CHANNELS 3 Xrotation Yrotation Zrotation
									JOINT RightArm
									{
										OFFSET -13.907140 -6.093903 1.965100
										CHANNELS 3 Xrotation Yrotation Zrotation
										JOINT RightForeArm
										{
											OFFSET -34.140198 0.000000 0.000000
											CHANNELS 3 Xrotation Yrotation Zrotation
											JOINT RightHand
											{
												OFFSET -40.960209 0.000000 0.000000
												CHANNELS 3 Xrotation Yrotation Zrotation
												End Site
												{
													OFFSET 0 0 0
												}
											}
										}
									}
								}
							}
						}
					}
				}
			}
		}
	}
}
MOTION
Frames: 8
Frame Time: 0.03333333
4.706011 96.465546 -15.500034 0.000000 0.000000 0.000000 45.848816 4.914796 -3.008684 -91.203762 5.350542 19.646595 40.121935 10.567261 -2.767104 7.375996 13.648493 -8.745467 1.128892 0.864898 -1.039500 0.000000 0.000000 0.000000 46.086643 4.664711 -1.251240 -47.142843 8.237963 -9.407027 64.367225 3.010532 -3.743611 9.028408 -2.361687 10.669828 -19.873305 -0.063291 7.981300 0.000000 0.000000 0.000000 49.233619 -2.679563 1.994440 12.010403 0.393762 -3.251996 11.541670 1.647822 -0.751004 0.116004 2.319507 1.119592 0.000000 0.000000 0.000000 27.118498 1.220252 -0.814318 -22.788737 -5.000963 6.176653 -18.671620 5.000097 -6.805866 0.000000 0.000000 0.000000 26.000469 2.294855 -0.319055 4.046467 -2.589036 7.119164 6.708590 -17.421581 -5.002825 -34.431895 -46.077863 -33.307800 2.188100 -46.670164 3.233788 0.000000 0.000000 0.000000 25.160588 0.953547 -0.074743 -2.399315 34.066716 11.407169 7.440881 9.348248 3.026812 -50.914184 22.102562 26.823667 2.698543 38.819373 -4.279531 0.000000 0.000000 0.000000 
4.525199 98.029129 -14.487606 0.000000 0.000000 0.000000 42.040887 2.976536 -1.520424 -86.011992 5.740666 18.356593 37.465094 11.039187 -2.679637 7.083486 14.591524 -9.097335 1.154131 0.935239 -1.233093 0.000000 0.000000 0.000000 42.225691 2.416737 0.331595 -51.457484 8.964920 -8.646146 67.230180 2.319879 -3.480183 5.393303 -3.219869 8.478590 -12.442986 0.803934 6.265765 0.000000 0.000000 0.000000 44.959170 -4.363714 2.818730 12.619393 0.157808 -3.390633 11.598234 1.602130 -0.494492 0.046659 2.293644 1.082985 0.000000 0.000000 0.000000 27.046586 1.178086 -0.564150 -22.260362 -4.831208 6.201189 -17.927472 5.520520 -6.137403 0.000000 0.000000 0.000000 25.775852 2.215265 -0.115828 4.051366 -1.887397 5.727706 5.397546 -17.703152 -4.752837 -32.900734 -44.787627 -34.808358 1.862679 -46.448900 2.742316 0.000000 0.000000 0.000000 24.985908 0.926565 0.092912 -2.586848 33.057122 12.184737 7.954237 9.146375 3.795149 -49.213623 21.909469 29.412266 2.801117 37.288858 -4.815238 0.000000 0.000000 0.000000 
4.446712 99.695892 -13.210957 0.000000 0.000000 0.000000 38.303745 0.623712 -0.231188 -80.753757 6.269372 17.466935 34.944033 11.334715 -2.631528 6.397297 15.087985 -9.323835 0.892300 0.990811 -1.350318 0.000000 0.000000 0.000000 38.412998 -0.459420 1.793461 -54.876643 9.828284 -7.920870 67.805446 2.216827 -3.594257 3.386027 -2.923990 7.588930 -8.935162 1.072901 4.843677 0.000000 0.000000 0.000000 40.974728 -6.165610 3.444339 13.034404 -0.014676 -3.433361 11.604424 1.632732 -0.246963 -0.074537 2.183079 1.084667 0.000000 0.000000 0.000000 26.903413 1.206973 -0.364859 -21.632129 -4.597704 6.083600 -17.115243 6.018311 -5.657715 0.000000 0.000000 0.000000 25.469943 2.217981 0.067463 4.039889 -1.286141 4.280657 4.163510 -17.710752 -4.512831 -31.566604 -43.269269 -36.563925 1.446310 -45.405551 2.175853 0.000000 0.000000 0.000000 24.736339 0.990589 0.235414 -2.640698 31.949890 12.722744 8.411827 8.818468 4.381343 -47.621349 21.491911 31.619712 2.732602 35.470873 -5.185650 0.000000 0.000000 0.000000 
4.339889 101.499519 -11.654598 0.000000 0.000000 0.000000 34.721656 -1.730292 0.590995 -75.497154 7.152665 17.179271 32.527840 11.513985 -2.637624 5.832430 15.201400 -9.448576 0.738381 1.026160 -1.400070 0.000000 0.000000 0.000000 34.651165 -3.458386 2.766071 -57.006863 10.546084 -7.445261 65.763315 2.516674 -3.906783 2.339895 -1.783473 7.497759 -8.283611 0.950747 3.724941 0.000000 0.000000 0.000000 37.362193 -8.027831 3.745692 13.258576 -0.091198 -3.343740 11.561675 1.747647 -0.009945 -0.154672 2.091855 1.135899 0.000000 0.000000 0.000000 26.678280 1.293179 -0.202107 -20.948253 -4.297500 5.847464 -16.129603 6.573896 -5.389592 0.000000 0.000000 0.000000 25.084705 2.285998 0.244629 4.019481 -0.824757 2.896767 3.297985 -17.614815 -4.249074 -30.364590 -41.699524 -38.427600 1.097495 -43.836796 1.668723 0.000000 0.000000 0.000000 24.425272 1.132801 0.365682 -2.561040 30.779216 13.016964 8.745304 8.286853 4.970677 -45.952765 20.757618 33.321102 2.544402 33.715945 -5.427434 0.000000 0.000000 0.000000 
4.153392 103.463402 -9.887836 0.000000 0.000000 0.000000 31.314276 -3.938797 0.860876 -70.298370 8.448590 17.386769 30.053454 11.761693 -2.643160 5.591037 15.137502 -9.499385 0.852913 1.059281 -1.432177 0.000000 0.000000 0.000000 30.992646 -6.021484 2.998031 -57.775525 10.627768 -7.493436 61.505949 2.764446 -4.116476 1.763523 -0.315262 7.665830 -9.232340 0.662860 2.755716 0.000000 0.000000 0.000000 34.043637 -9.671240 3.627958 13.343319 -0.113229 -3.122947 11.472448 1.903131 0.205281 -0.186100 1.916323 1.213771 0.000000 0.000000 0.000000 26.352451 1.396064 -0.064470 -20.279028 -3.935963 5.537169 -14.869281 7.170987 -5.302173 0.000000 0.000000 0.000000 24.618416 2.371985 0.426423 3.991521 -0.571552 1.661012 2.531356 -17.367991 -3.999570 -29.170020 -40.263412 -40.239919 0.925382 -42.070550 1.320881 0.000000 0.000000 0.000000 24.053561 1.304123 0.489796 -2.364323 29.554905 13.099243 9.111579 7.563211 5.641997 -44.250316 19.670269 34.612602 2.264459 32.356245 -5.582841 0.000000 0.000000 0.000000 
3.926954 105.539795 -8.243145 0.000000 0.000000 0.000000 28.113113 -5.850639 0.662687 -65.022615 10.025915 17.734038 27.394301 12.053554 -2.496984 5.719537 14.942821 -9.688167 1.112208 1.103004 -1.450816 0.000000 0.000000 0.000000 27.452796 -7.858342 2.632962 -57.512372 9.966307 -8.096840 55.590210 2.679188 -3.996564 1.608697 0.892146 8.028182 -10.380295 0.346799 1.891891 0.000000 0.000000 0.000000 30.907866 -11.014471 3.150846 13.314077 -0.136060 -2.840697 11.352638 2.034702 0.386826 -0.224041 1.742073 1.212987 0.000000 0.000000 0.000000 25.940725 1.467346 0.055377 -19.711074 -3.528090 5.212553 -13.297925 7.816290 -5.303992 0.000000 0.000000 0.000000 24.105522 2.420581 0.624486 3.954371 -0.513109 0.673610 1.882369 -17.024076 -3.833950 -27.909389 -39.026045 -41.874572 0.953899 -40.325758 1.155573 0.000000 0.000000 0.000000 23.634232 1.438324 0.615024 -2.078683 28.288403 12.953711 9.588366 6.866384 6.492390 -42.589703 18.303640 35.642017 1.944493 31.480519 -5.698258 0.000000 0.000000 0.000000 
3.643610 107.567436 -6.745693 0.000000 0.000000 0.000000 25.000973 -7.302332 0.154098 -59.648834 11.653246 17.878963 24.697833 12.134237 -2.113236 6.119870 14.504885 -10.274563 1.313523 1.163121 -1.455726 0.000000 0.000000 0.000000 24.092072 -8.958164 1.917151 -56.385715 8.747205 -9.045371 48.884562 2.491653 -3.765665 1.827709 1.630503 8.613277 -10.680921 0.120562 1.101508 0.000000 0.000000 0.000000 27.739396 -11.786651 2.344188 13.232226 -0.204527 -2.607426 11.225799 2.089090 0.528172 -0.241636 1.619694 1.172198 0.000000 0.000000 0.000000 25.461251 1.469069 0.168346 -19.235129 -3.106737 4.959697 -11.426170 8.435605 -5.295746 0.000000 0.000000 0.000000 23.601000 2.387848 0.834634 3.909724 -0.595568 -0.054604 1.130867 -16.534247 -3.888714 -26.554510 -38.035315 -43.275505 1.176838 -38.734754 1.155326 0.000000 0.000000 0.000000 23.160917 1.471729 0.731137 -1.740466 26.987467 12.582656 10.145673 6.319414 7.484766 -41.143373 16.830785 36.646335 1.603623 31.072108 -5.787777 0.000000 0.000000 0.000000 
3.328807 109.404175 -5.459442 0.000000 0.000000 0.000000 21.925758 -8.369353 -0.494634 -54.352654 13.051470 17.575608 22.135596 11.855968 -1.482431 6.538926 13.736733 -11.256691 1.346305 1.230923 -1.439203 0.000000 0.000000 0.000000 20.944473 -9.477604 1.102901 -54.729623 7.189989 -9.989473 42.293402 2.151897 -3.533863 2.471886 1.749389 9.625361 -10.189076 0.005938 0.478115 0.000000 0.000000 0.000000 24.490973 -12.003593 1.391159 13.101799 -0.342028 -2.462214 11.107919 2.037393 0.624249 -0.215851 1.578313 1.116575 0.000000 0.000000 0.000000 24.923478 1.380526 0.266552 -18.827172 -2.722709 4.839289 -9.350909 8.902337 -5.187921 0.000000 0.000000 0.000000 23.109322 2.253812 1.048477 3.853515 -0.777191 -0.549453 0.281106 -16.079698 -4.051313 -25.079418 -37.250639 -44.372724 1.477613 -37.369942 1.237622 0.000000 0.000000 0.000000 22.627271 1.386445 0.834419 -1.408665 25.678620 12.094819 10.819426 6.042621 8.486203 -40.083522 15.358659 37.789145 1.251656 30.991526 -5.855944 0.000000 0.000000 0.000000 
